:SAMPLES-PER-SECOND 30
:FULLY-SPECIFIED
:DEGREES
146
root  -3.40587 40.9024 1.04819 -178.524 -87.7832 177.729
RightUpLeg  5.40059 -1.8736 -2.17064
RightLeg  -0.999525 -16.9909 0.0336189
RightFoot  -1.67903 -0.343741 3.95012
RightToes  -3.13006e-008 1.75238e-005 3.56266e-009
Spine  -6.95118 -3.79789 -4.12529
Spine1  11.6288 -4.71652 3.76062
HEad  -17.3851 -26.4187 13.429
LeftShoulder1  2.35066 -4.92839 -21.5174
LeftArm  -10.1008 -10.3415 -51.0822
LeftForeArm  165.529 -65.4048 -158.101
LeftHand  0.15577 -8.50947 -0.903931
RightShoulder  0.616162 -0.250852 11.927
RightArm  -72.9323 17.5258 1.97132
RightForeArm  23.4149 67.4203 25.8471
RightHand  -1.05075 7.36416 -9.88
LeftUpLeg  5.33041 1.08452 1.41817
LeftLeg  -1.53546 14.5035 -0.717589
LeftFoot  -2.13575 0.216816 -2.54367
LeftToes  4.76866e-008 1.46233e-008 1.30548e-009
147
root  -3.41836 40.899 1.04769 -179.78 -86.7633 178.891
RightUpLeg  5.30309 -1.72598 -2.10204
RightLeg  -0.824383 -16.1288 -0.156139
RightFoot  -1.68414 -0.342951 3.94527
RightToes  -3.13006e-008 1.75238e-005 3.56266e-009
Spine  -7.20863 -3.67682 -4.32674
Spine1  12.1036 -4.70799 4.18868
HEad  -17.1962 -26.4556 12.5959
LeftShoulder1  2.54203 -5.34322 -22.4393
LeftArm  -12.267 -7.99061 -52.8681
LeftForeArm  164.143 -64.946 -158.382
LeftHand  0.0184624 -7.62911 0.199894
RightShoulder  0.628796 -0.235548 12.2385
RightArm  -70.8296 17.8439 2.65053
RightForeArm  25.7055 70.1335 30.4212
RightHand  -0.994736 7.45473 -9.31602
LeftUpLeg  5.6098 1.19145 1.4543
LeftLeg  -1.59397 15.3956 -0.806839
LeftFoot  -2.23252 0.220514 -2.62248
LeftToes  4.76866e-008 1.46233e-008 1.30548e-009
148
root  -3.42221 40.8947 1.05405 178.065 -85.999 -179.011
RightUpLeg  5.25552 -1.56787 -1.96057
RightLeg  -0.792088 -15.5535 -0.231818
RightFoot  -1.62798 -0.34256 3.94687
RightToes  -3.13006e-008 1.75238e-005 3.56266e-009
Spine  -7.45697 -3.68271 -4.02119
Spine1  12.5568 -4.6792 3.8811
HEad  -17.3452 -25.8535 12.4875
LeftShoulder1  2.58886 -5.44505 -22.6449
LeftArm  -13.7253 -5.93646 -54.8672
LeftForeArm  162.639 -64.2618 -158.843
LeftHand  -0.0397253 -7.37762 0.721769
RightShoulder  0.759373 0.308881 12.9929
RightArm  -68.8668 17.3991 3.04129
RightForeArm  31.7084 73.1798 37.4045
RightHand  -1.05051 8.21453 -9.30137
LeftUpLeg  5.68636 1.29097 1.55759
LeftLeg  -1.40182 16.0499 -0.75503
LeftFoot  -2.39761 0.22283 -2.67998
LeftToes  4.76866e-008 1.46233e-008 1.30548e-009
149
root  -3.431 40.8924 1.04671 177.045 -85.1753 -178.072
RightUpLeg  5.23595 -1.4531 -1.8522
RightLeg  -0.756108 -14.8741 -0.278302
RightFoot  -1.62852 -0.333842 3.81942
RightToes  -3.13006e-008 1.75238e-005 3.56266e-009
Spine  -7.99854 -3.50856 -3.73219
Spine1  13.5351 -4.45861 3.52035
HEad  -18.6147 -26.0019 12.4783
LeftShoulder1  2.60356 -5.35954 -23.1133
LeftArm  -14.1532 -4.95707 -56.0106
LeftForeArm  160.34 -63.4738 -159.293
LeftHand  -0.117374 -7.27605 1.43926
RightShoulder  0.866737 0.676164 13.8868
RightArm  -67.3617 16.5985 3.62817
RightForeArm  42.7139 76.3203 49.0639
RightHand  -1.00136 8.39159 -8.77679
LeftUpLeg  5.89333 1.43641 1.66967
LeftLeg  -1.40057 16.7009 -0.801124
LeftFoot  -2.46512 0.227756 -2.77753
LeftToes  4.76866e-008 1.46233e-008 1.30548e-009
150
root  -3.44723 40.8894 1.01232 176.41 -84.7667 -177.535
RightUpLeg  5.24269 -1.37202 -1.73259
RightLeg  -0.595166 -14.5774 -0.337442
RightFoot  -1.70716 -0.335922 3.85975
RightToes  -3.13006e-008 1.75238e-005 3.56266e-009
Spine  -8.57681 -3.4201 -3.86265
Spine1  14.5433 -4.36881 3.49022
HEad  -19.6427 -25.6969 12.793
LeftShoulder1  2.6367 -5.43939 -23.2283
LeftArm  -13.864 -4.45964 -56.5332
LeftForeArm  158.116 -63.0525 -159.422
LeftHand  -0.211174 -6.94796 2.33506
RightShoulder  0.998683 1.10372 14.9203
RightArm  -65.8168 15.4047 4.18976
RightForeArm  59.8526 78.679 66.9955
RightHand  -0.91757 8.34923 -8.10143
LeftUpLeg  6.11108 1.55439 1.79801
LeftLeg  -1.45233 16.9759 -0.836538
LeftFoot  -2.51427 0.228069 -2.80204
LeftToes  4.76866e-008 1.46233e-008 1.30548e-009
151
root  -3.4524 40.886 0.976655 175.695 -84.7303 -176.898
RightUpLeg  5.35795 -1.3497 -1.63824
RightLeg  -0.6195 -14.5423 -0.292082
RightFoot  -1.75112 -0.337357 3.89022
RightToes  -3.13006e-008 1.75238e-005 3.56266e-009
Spine  -8.83809 -3.37138 -4.30983
Spine1  14.97 -4.43079 3.97029
HEad  -19.9889 -24.7432 12.6308
LeftShoulder1  2.66731 -5.48573 -23.4277
LeftArm  -13.1697 -3.9991 -56.2628
LeftForeArm  157.577 -63.1202 -159.309
LeftHand  -0.250829 -7.17757 2.67498
RightShoulder  1.10751 1.36708 16.0879
RightArm  -64.2246 14.4156 4.35062
RightForeArm  80.3043 79.5345 88.3969
RightHand  -0.845438 8.58894 -7.37933
LeftUpLeg  6.15914 1.60213 1.90521
LeftLeg  -1.32596 16.9408 -0.749314
LeftFoot  -2.56908 0.230111 -2.8514
LeftToes  4.76866e-008 1.46233e-008 1.30548e-009
152
root  -3.45567 40.8839 0.935524 174.783 -84.9044 -176.144
RightUpLeg  5.62888 -1.38618 -1.54425
RightLeg  -0.742445 -14.7063 -0.178486
RightFoot  -1.75965 -0.324802 3.70365
RightToes  -3.13006e-008 1.75238e-005 3.56266e-009
Spine  -8.66027 -3.35921 -4.9892
Spine1  14.7907 -4.61318 4.83826
HEad  -19.8852 -24.0869 12.2855
LeftShoulder1  2.66166 -5.46579 -23.4306
LeftArm  -12.7714 -3.85153 -55.758
LeftForeArm  158.036 -63.7584 -158.809
LeftHand  -0.198292 -7.3086 2.17141
RightShoulder  1.20743 1.6808 16.6824
RightArm  -62.9815 13.5135 4.7846
RightForeArm  97.4587 79.2356 104.659
RightHand  -0.787917 8.9884 -6.72782
LeftUpLeg  6.30923 1.69284 2.0604
LeftLeg  -1.2904 16.6504 -0.719687
LeftFoot  -2.586 0.235441 -2.94917
LeftToes  4.76866e-008 1.46233e-008 1.30548e-009
153
root  -3.452 40.883 0.907939 174.199 -84.9838 -175.633
RightUpLeg  5.72829 -1.43209 -1.50342
RightLeg  -0.758952 -14.7184 -0.0852336
RightFoot  -1.783 -0.320557 3.64616
RightToes  -3.13006e-008 1.75238e-005 3.56266e-009
Spine  -8.63603 -3.32408 -5.25122
Spine1  14.6064 -4.63613 5.14033
HEad  -19.5529 -23.2623 11.6434
LeftShoulder1  2.66617 -5.54697 -23.2037
LeftArm  -12.6023 -4.01267 -55.1292
LeftForeArm  158.103 -64.2981 -158.335
LeftHand  -0.191865 -7.17153 2.12963
RightShoulder  1.33459 2.10383 17.2368
RightArm  -61.4009 12.0845 4.76562
RightForeArm  106.981 78.5167 114.813
RightHand  -0.790943 9.21446 -6.65037
LeftUpLeg  6.33435 1.74317 2.15265
LeftLeg  -1.18668 16.5028 -0.657096
LeftFoot  -2.62886 0.241377 -3.05446
LeftToes  4.76866e-008 1.46233e-008 1.30548e-009
154
root  -3.44342 40.8825 0.887117 173.908 -85.045 -175.379
RightUpLeg  5.77386 -1.39307 -1.43933
RightLeg  -0.769595 -14.817 -0.0915498
RightFoot  -1.80789 -0.320629 3.65571
RightToes  -3.13006e-008 1.75238e-005 3.56266e-009
Spine  -8.63213 -3.34055 -5.49984
Spine1  14.3431 -4.68569 5.38201
HEad  -19.172 -22.1343 11.425
LeftShoulder1  2.65867 -5.61241 -22.89
LeftArm  -12.8245 -3.91226 -54.3627
LeftForeArm  158.428 -64.655 -158.038
LeftHand  -0.213131 -7.52477 2.28134
RightShoulder  1.45688 2.52335 17.6371
RightArm  -59.9608 11.6155 5.11187
RightForeArm  111.212 78.0167 119.461
RightHand  -0.924961 9.43032 -7.61702
LeftUpLeg  6.30743 1.71406 2.17499
LeftLeg  -1.08615 16.4543 -0.55591
LeftFoot  -2.64421 0.244628 -3.11742
LeftToes  4.76866e-008 1.46233e-008 1.30548e-009
155
root  -3.43383 40.8821 0.867907 173.519 -85.03 -175.02
RightUpLeg  5.82113 -1.36525 -1.37087
RightLeg  -0.822921 -14.8346 -0.0636311
RightFoot  -1.81172 -0.31307 3.54683
RightToes  -3.13006e-008 1.75238e-005 3.56266e-009
Spine  -8.83183 -3.32289 -5.62823
Spine1  14.4843 -4.68034 5.4724
HEad  -18.7567 -20.946 11.0401
LeftShoulder1  2.54524 -5.32591 -22.5349
LeftArm  -12.8815 -4.76103 -53.6582
LeftForeArm  156.991 -65.0182 -157.54
LeftHand  -0.210785 -6.80038 2.3513
RightShoulder  1.55042 2.82751 17.9797
RightArm  -58.9745 11.3768 5.42682
RightForeArm  112.356 77.6551 121.87
RightHand  -0.789766 9.19719 -6.63288
LeftUpLeg  6.30337 1.76542 2.25123
LeftLeg  -1.02196 16.4126 -0.541715
LeftFoot  -2.68171 0.243256 -3.10779
LeftToes  4.76866e-008 1.46233e-008 1.30548e-009
156
root  -3.42856 40.8817 0.859035 173.578 -85.017 -175.102
RightUpLeg  5.87563 -1.42077 -1.40228
RightLeg  -0.897399 -14.7805 0.00380309
RightFoot  -1.80649 -0.317316 3.62115
RightToes  -3.13006e-008 1.75238e-005 3.56266e-009
Spine  -8.83203 -3.16746 -5.58807
Spine1  14.2879 -4.48219 5.41275
HEad  -18.3431 -19.0865 10.9205
LeftShoulder1  2.57434 -5.4791 -22.356
LeftArm  -13.2592 -5.2727 -52.9244
LeftForeArm  155.9 -65.1393 -157.302
LeftHand  -0.176691 -6.37321 2.0796
RightShoulder  1.57447 2.85629 18.2683
RightArm  -57.8694 10.9229 5.73466
RightForeArm  113.674 77.5356 122.887
RightHand  -0.556343 9.04625 -4.84559
LeftUpLeg  6.34031 1.70284 2.22101
LeftLeg  -1.0555 16.4834 -0.489636
LeftFoot  -2.65489 0.247841 -3.19017
LeftToes  4.76866e-008 1.46233e-008 1.30548e-009
